# xmcd
#
# Track frame offsets:
#	150
#	28378
#	55815
#	88993
#	113660
#	145165
#	194905
#	216223
#	293545
#	312353
#
# Disc length: 4433 seconds
#
# Revision: 1
# Processed by: cddbd v1.4PL0 Copyright (c) Steve Scherf et al.
# Submitted via: audiograbber 1.81.01
#
DISCID=9c114f0a
DTITLE=GROUNDHOGS - Hoggin The Stage
DYEAR=1995
DGENRE=Progresive Blues
TTITLE0=Cherry Red
TTITLE1=Garden
TTITLE2=Split Part One
TTITLE3=Groundhog Blues
TTITLE4=Eccetric Man
TTITLE5=Split Part Two
TTITLE6=Mistreated
TTITLE7=Still A Fool
TTITLE8=Boogie With Us
TTITLE9=Your Love Keeps Me Alive
EXTD=RECEIVER RECORDS\nMarketed By Trojan Sales Ltd\n1995 Receiver Records\nTwy
EXTD=man House, 31-39 Camden Road, London NW1 9LF\nRRCD 207
EXTT0=
EXTT1=
EXTT2=
EXTT3=
EXTT4=
EXTT5=
EXTT6=
EXTT7=
EXTT8=
EXTT9=
PLAYORDER=
